# Blender v2.81 (sub 16) OBJ File: ''
# www.blender.org
mtllib hopeitworks.mtl
o Cube_Cube.001
v -6.268188 -0.057356 -9.339590
v -6.268188 5.047815 -9.339589
v 7.686178 5.047815 -9.339589
v 7.686178 -0.057356 -9.339590
v 7.686178 5.047815 -8.312615
v 7.686178 -0.057356 -8.312616
v -6.268188 -0.057356 -8.312616
v -6.268188 5.047815 -8.312615
v 7.773796 5.101928 -8.306168
v -6.355806 5.101928 -8.306168
v 7.773796 5.101928 -9.346037
v 7.773796 5.776958 -9.346037
v 7.773796 5.776958 -8.306168
v -6.355806 5.101928 -9.346037
v -6.355806 5.776958 -9.346037
v -6.355806 5.776958 -8.306168
vt 0.998350 0.858032
vt -0.003271 -0.000562
vt 0.996468 0.017914
vt 0.050459 0.842486
vt -0.000300 0.003048
vt 0.050459 0.003048
vt 0.996468 0.859017
vt 0.933308 0.009483
vt 0.998018 0.009483
vt 0.000027 0.041447
vt 0.999973 0.115038
vt 0.000027 0.115038
vt 0.000281 0.865803
vt 0.999927 0.840887
vt 0.000240 0.840543
vt 0.245869 0.857251
vt 0.166437 0.999317
vt 0.166437 0.857251
vt 0.974649 0.845194
vt 0.002644 0.862257
vt 0.008560 0.845290
vt 0.144057 0.874139
vt 0.383098 0.851723
vt 0.381591 0.875533
vt -0.040448 0.870344
vt 0.083222 0.858020
vt 0.082450 0.870344
vt 0.999604 0.145877
vt -0.000342 -0.002265
vt 0.999604 -0.002265
vt 0.073603 0.852815
vt -0.010439 0.999112
vt -0.010687 0.854380
vt 0.999927 0.854200
vt 0.000162 0.996774
vt 0.000240 0.853857
vt 1.000032 0.856968
vt 0.000147 0.998964
vt -0.000003 0.856681
vt 0.998329 0.849293
vt -0.001429 0.000973
vt 0.998329 0.000973
vt -0.001390 0.839557
vt -0.000300 0.842486
vt 0.931758 0.859017
vt 0.999973 0.041447
vt 0.958037 0.865761
vt 0.245869 0.999317
vt 1.002526 0.862545
vt 0.142581 0.850311
vt -0.041220 0.858020
vt -0.000342 0.145877
vt 0.073851 0.997547
vt 1.000043 0.997119
vt 1.000336 0.999253
vt -0.001429 0.849293
vn 0.0000 0.0000 -1.0000
vn 1.0000 -0.0000 0.0000
vn -1.0000 -0.0000 0.0000
vn 0.0000 -1.0000 -0.0000
vn 0.0000 -0.1183 0.9930
vn 0.0000 -0.1183 -0.9930
vn 0.5255 -0.8508 0.0000
vn -0.5255 -0.8508 0.0000
vn 0.0000 1.0000 0.0000
vn 0.0000 0.0000 1.0000
usemtl None
s 1
f 2/1/1 4/2/1 1/3/1
f 3/4/2 6/5/2 4/6/2
f 8/7/3 1/8/3 7/9/3
f 1/10/4 6/11/4 7/12/4
f 8/13/5 9/14/5 10/15/5
f 11/16/2 13/17/2 9/18/2
f 2/19/6 11/20/6 3/21/6
f 3/22/7 9/23/7 5/24/7
f 8/25/8 14/26/8 2/27/8
f 12/28/9 16/29/9 13/30/9
f 10/31/3 15/32/3 14/33/3
f 9/34/10 16/35/10 10/36/10
f 14/37/1 12/38/1 11/39/1
f 5/40/10 7/41/10 6/42/10
f 2/1/1 3/43/1 4/2/1
f 3/4/2 5/44/2 6/5/2
f 8/7/3 2/45/3 1/8/3
f 1/10/4 4/46/4 6/11/4
f 8/13/5 5/47/5 9/14/5
f 11/16/2 12/48/2 13/17/2
f 2/19/6 14/49/6 11/20/6
f 3/22/7 11/50/7 9/23/7
f 8/25/8 10/51/8 14/26/8
f 12/28/9 15/52/9 16/29/9
f 10/31/3 16/53/3 15/32/3
f 9/34/10 13/54/10 16/35/10
f 14/37/1 15/55/1 12/38/1
f 5/40/10 8/56/10 7/41/10
o Cube_Cube.000
v -6.559324 -0.057356 5.831874
v -6.559324 5.047815 5.831875
v 7.395041 5.047815 5.831875
v 7.395041 -0.057356 5.831874
v 7.395041 5.047815 6.858849
v 7.395041 -0.057356 6.858848
v -6.559324 -0.057356 6.858848
v -6.559324 5.047815 6.858849
v 7.482659 5.101928 6.865297
v -6.646943 5.101928 6.865297
v 7.482659 5.101928 5.825427
v 7.482659 5.776958 5.825427
v 7.482659 5.776958 6.865297
v -6.646943 5.101928 5.825427
v -6.646943 5.776958 5.825427
v -6.646943 5.776958 6.865297
vt 0.998350 0.858032
vt -0.003271 -0.000562
vt 0.996468 0.017914
vt 0.050459 0.842486
vt -0.000300 0.003048
vt 0.050459 0.003048
vt 0.996468 0.859017
vt 0.933308 0.009483
vt 0.998018 0.009483
vt 0.000027 0.041447
vt 0.999973 0.115038
vt 0.000027 0.115038
vt 0.000281 0.865803
vt 0.999927 0.840887
vt 0.000240 0.840543
vt 0.245869 0.857251
vt 0.166437 0.999317
vt 0.166437 0.857251
vt 0.974649 0.845194
vt 0.002644 0.862257
vt 0.008560 0.845290
vt 0.144057 0.874139
vt 0.383098 0.851723
vt 0.381591 0.875533
vt -0.040448 0.870344
vt 0.083222 0.858020
vt 0.082450 0.870344
vt 0.999604 0.145877
vt -0.000342 -0.002265
vt 0.999604 -0.002265
vt 0.073603 0.852815
vt -0.010439 0.999112
vt -0.010687 0.854380
vt 0.999927 0.854200
vt 0.000162 0.996774
vt 0.000240 0.853857
vt 1.000032 0.856968
vt 0.000147 0.998964
vt -0.000003 0.856681
vt 0.998329 0.849293
vt -0.001429 0.000973
vt 0.998329 0.000973
vt -0.001390 0.839557
vt -0.000300 0.842486
vt 0.931758 0.859017
vt 0.999973 0.041447
vt 0.958037 0.865761
vt 0.245869 0.999317
vt 1.002526 0.862545
vt 0.142581 0.850311
vt -0.041220 0.858020
vt -0.000342 0.145877
vt 0.073851 0.997547
vt 1.000043 0.997119
vt 1.000336 0.999253
vt -0.001429 0.849293
vn 0.0000 0.0000 -1.0000
vn 1.0000 -0.0000 0.0000
vn -1.0000 -0.0000 0.0000
vn 0.0000 -1.0000 -0.0000
vn 0.0000 -0.1183 0.9930
vn 0.0000 -0.1183 -0.9930
vn 0.5255 -0.8508 0.0000
vn -0.5255 -0.8508 0.0000
vn 0.0000 1.0000 0.0000
vn 0.0000 0.0000 1.0000
usemtl None.001
s 1
f 18/57/11 20/58/11 17/59/11
f 19/60/12 22/61/12 20/62/12
f 24/63/13 17/64/13 23/65/13
f 17/66/14 22/67/14 23/68/14
f 24/69/15 25/70/15 26/71/15
f 27/72/12 29/73/12 25/74/12
f 18/75/16 27/76/16 19/77/16
f 19/78/17 25/79/17 21/80/17
f 24/81/18 30/82/18 18/83/18
f 28/84/19 32/85/19 29/86/19
f 26/87/13 31/88/13 30/89/13
f 25/90/20 32/91/20 26/92/20
f 30/93/11 28/94/11 27/95/11
f 21/96/20 23/97/20 22/98/20
f 18/57/11 19/99/11 20/58/11
f 19/60/12 21/100/12 22/61/12
f 24/63/13 18/101/13 17/64/13
f 17/66/14 20/102/14 22/67/14
f 24/69/15 21/103/15 25/70/15
f 27/72/12 28/104/12 29/73/12
f 18/75/16 30/105/16 27/76/16
f 19/78/17 27/106/17 25/79/17
f 24/81/18 26/107/18 30/82/18
f 28/84/19 31/108/19 32/85/19
f 26/87/13 32/109/13 31/88/13
f 25/90/20 29/110/20 32/91/20
f 30/93/11 31/111/11 28/94/11
f 21/96/20 24/112/20 23/97/20
o Cube_Cube.002
v 7.751336 -0.057356 -8.182201
v 7.751335 5.047815 -8.182201
v 7.475882 5.047815 5.769445
v 7.475882 -0.057356 5.769445
v 6.449108 5.047815 5.749173
v 6.449108 -0.057356 5.749173
v 6.724562 -0.057356 -8.202473
v 6.724561 5.047815 -8.202473
v 6.440931 5.101928 5.836647
v 6.719843 5.101928 -8.290202
v 7.480598 5.101928 5.857173
v 7.480598 5.776958 5.857173
v 6.440931 5.776958 5.836647
v 7.759511 5.101928 -8.269675
v 7.759511 5.776958 -8.269675
v 6.719843 5.776958 -8.290202
vt 0.998350 0.858032
vt -0.003271 -0.000562
vt 0.996468 0.017914
vt 0.050459 0.842486
vt -0.000300 0.003048
vt 0.050459 0.003048
vt 0.996468 0.859017
vt 0.933308 0.009483
vt 0.998018 0.009483
vt 0.000027 0.041447
vt 0.999973 0.115038
vt 0.000027 0.115038
vt 0.000281 0.865803
vt 0.999927 0.840887
vt 0.000240 0.840543
vt 0.245869 0.857251
vt 0.166437 0.999317
vt 0.166437 0.857251
vt 0.974649 0.845194
vt 0.002644 0.862257
vt 0.008560 0.845290
vt 0.144057 0.874139
vt 0.383098 0.851723
vt 0.381591 0.875533
vt -0.040448 0.870344
vt 0.083222 0.858020
vt 0.082450 0.870344
vt 0.999604 0.145877
vt -0.000342 -0.002265
vt 0.999604 -0.002265
vt 0.073603 0.852815
vt -0.010439 0.999112
vt -0.010687 0.854380
vt 0.999927 0.854200
vt 0.000162 0.996774
vt 0.000240 0.853857
vt 1.000032 0.856968
vt 0.000147 0.998964
vt -0.000003 0.856681
vt 0.998329 0.849293
vt -0.001429 0.000973
vt 0.998329 0.000973
vt -0.001390 0.839557
vt -0.000300 0.842486
vt 0.931758 0.859017
vt 0.999973 0.041447
vt 0.958037 0.865761
vt 0.245869 0.999317
vt 1.002526 0.862545
vt 0.142581 0.850311
vt -0.041220 0.858020
vt -0.000342 0.145877
vt 0.073851 0.997547
vt 1.000043 0.997119
vt 1.000336 0.999253
vt -0.001429 0.849293
vn 0.9998 0.0000 0.0197
vn -0.0197 0.0000 0.9998
vn 0.0197 0.0000 -0.9998
vn 0.0000 -1.0000 0.0000
vn -0.9928 -0.1184 -0.0196
vn -0.9928 -0.1183 -0.0196
vn 0.9928 -0.1183 0.0196
vn -0.0104 -0.8508 0.5254
vn 0.0104 -0.8508 -0.5254
vn 0.0000 1.0000 -0.0000
vn -0.9998 0.0000 -0.0197
usemtl None.002
s 1
f 34/113/21 36/114/21 33/115/21
f 35/116/22 38/117/22 36/118/22
f 40/119/23 33/120/23 39/121/23
f 33/122/24 38/123/24 39/124/24
f 40/125/25 41/126/26 42/127/25
f 43/128/22 45/129/22 41/130/22
f 34/131/27 43/132/27 35/133/27
f 35/134/28 41/135/28 37/136/28
f 40/137/29 46/138/29 34/139/29
f 44/140/30 48/141/30 45/142/30
f 42/143/23 47/144/23 46/145/23
f 41/146/31 48/147/31 42/148/31
f 46/149/21 44/150/21 43/151/21
f 37/152/31 39/153/31 38/154/31
f 34/113/21 35/155/21 36/114/21
f 35/116/22 37/156/22 38/117/22
f 40/119/23 34/157/23 33/120/23
f 33/122/24 36/158/24 38/123/24
f 40/125/25 37/159/26 41/126/26
f 43/128/22 44/160/22 45/129/22
f 34/131/27 46/161/27 43/132/27
f 35/134/28 43/162/28 41/135/28
f 40/137/29 42/163/29 46/138/29
f 44/140/30 47/164/30 48/141/30
f 42/143/23 48/165/23 47/144/23
f 41/146/31 45/166/31 48/147/31
f 46/149/21 47/167/21 44/150/21
f 37/152/31 40/168/31 39/153/31
o Cube_Cube.003
v -5.242424 -0.057356 -8.182201
v -5.242424 5.047815 -8.182201
v -5.517878 5.047815 5.769445
v -5.517877 -0.057356 5.769445
v -6.544652 5.047815 5.749173
v -6.544651 -0.057356 5.749173
v -6.269197 -0.057356 -8.202473
v -6.269198 5.047815 -8.202473
v -6.552828 5.101928 5.836647
v -6.273916 5.101928 -8.290202
v -5.513161 5.101928 5.857173
v -5.513161 5.776958 5.857173
v -6.552828 5.776958 5.836647
v -5.234248 5.101928 -8.269675
v -5.234248 5.776958 -8.269675
v -6.273916 5.776958 -8.290202
vt 0.998350 0.858032
vt -0.003271 -0.000562
vt 0.996468 0.017914
vt 0.050459 0.842486
vt -0.000300 0.003048
vt 0.050459 0.003048
vt 0.996468 0.859017
vt 0.933308 0.009483
vt 0.998018 0.009483
vt 0.000027 0.041447
vt 0.999973 0.115038
vt 0.000027 0.115038
vt 0.000281 0.865803
vt 0.999927 0.840887
vt 0.000240 0.840543
vt 0.245869 0.857251
vt 0.166437 0.999317
vt 0.166437 0.857251
vt 0.974649 0.845194
vt 0.002644 0.862257
vt 0.008560 0.845290
vt 0.144057 0.874139
vt 0.383098 0.851723
vt 0.381591 0.875533
vt -0.040448 0.870344
vt 0.083222 0.858020
vt 0.082450 0.870344
vt 0.999604 0.145877
vt -0.000342 -0.002265
vt 0.999604 -0.002265
vt 0.073603 0.852815
vt -0.010439 0.999112
vt -0.010687 0.854380
vt 0.999927 0.854200
vt 0.000162 0.996774
vt 0.000240 0.853857
vt 1.000032 0.856968
vt 0.000147 0.998964
vt -0.000003 0.856681
vt 0.998329 0.849293
vt -0.001429 0.000973
vt 0.998329 0.000973
vt -0.001390 0.839557
vt -0.000300 0.842486
vt 0.931758 0.859017
vt 0.999973 0.041447
vt 0.958037 0.865761
vt 0.245869 0.999317
vt 1.002526 0.862545
vt 0.142581 0.850311
vt -0.041220 0.858020
vt -0.000342 0.145877
vt 0.073851 0.997547
vt 1.000043 0.997119
vt 1.000336 0.999253
vt -0.001429 0.849293
vn 0.9998 0.0000 0.0197
vn -0.0197 0.0000 0.9998
vn 0.0197 0.0000 -0.9998
vn 0.0000 -1.0000 0.0000
vn -0.9928 -0.1183 -0.0196
vn 0.9928 -0.1183 0.0196
vn -0.0104 -0.8508 0.5254
vn 0.0104 -0.8508 -0.5254
vn 0.0000 1.0000 -0.0000
vn -0.9998 0.0000 -0.0197
usemtl None.003
s 1
f 50/169/32 52/170/32 49/171/32
f 51/172/33 54/173/33 52/174/33
f 56/175/34 49/176/34 55/177/34
f 49/178/35 54/179/35 55/180/35
f 56/181/36 57/182/36 58/183/36
f 59/184/33 61/185/33 57/186/33
f 50/187/37 59/188/37 51/189/37
f 51/190/38 57/191/38 53/192/38
f 56/193/39 62/194/39 50/195/39
f 60/196/40 64/197/40 61/198/40
f 58/199/34 63/200/34 62/201/34
f 57/202/41 64/203/41 58/204/41
f 62/205/32 60/206/32 59/207/32
f 53/208/41 55/209/41 54/210/41
f 50/169/32 51/211/32 52/170/32
f 51/172/33 53/212/33 54/173/33
f 56/175/34 50/213/34 49/176/34
f 49/178/35 52/214/35 54/179/35
f 56/181/36 53/215/36 57/182/36
f 59/184/33 60/216/33 61/185/33
f 50/187/37 62/217/37 59/188/37
f 51/190/38 59/218/38 57/191/38
f 56/193/39 58/219/39 62/194/39
f 60/196/40 63/220/40 64/197/40
f 58/199/34 64/221/34 63/200/34
f 57/202/41 61/222/41 64/203/41
f 62/205/32 63/223/32 60/206/32
f 53/208/41 56/224/41 55/209/41
